<mxfile host="app.diagrams.net" agent="Mozilla/5.0 (Windows NT 10.0; Win64; x64) AppleWebKit/537.36 (KHTML, like Gecko) Chrome/140.0.0.0 Safari/537.36 Edg/140.0.0.0" version="28.2.5">
  <diagram name="第 1 页" id="mEF5IcMMuSTqogdvoqkr">
    <mxGraphModel dx="1004" dy="683" grid="1" gridSize="11" guides="1" tooltips="1" connect="1" arrows="1" fold="1" page="1" pageScale="1" pageWidth="827" pageHeight="1169" math="0" shadow="0">
      <root>
        <mxCell id="0" />
        <mxCell id="1" parent="0" />
        <mxCell id="1jyaUNg8WRqcpm8-MpQX-2" value="" style="rounded=1;whiteSpace=wrap;html=1;" parent="1" vertex="1">
          <mxGeometry x="231" y="253" width="420" height="253" as="geometry" />
        </mxCell>
        <mxCell id="1jyaUNg8WRqcpm8-MpQX-3" value="栈帧" style="text;html=1;align=center;verticalAlign=middle;whiteSpace=wrap;rounded=0;fontSize=21;" parent="1" vertex="1">
          <mxGeometry x="374" y="253" width="110" height="55" as="geometry" />
        </mxCell>
        <mxCell id="1jyaUNg8WRqcpm8-MpQX-4" value="&lt;font style=&quot;font-size: 14px;&quot;&gt;局部变量表&lt;/font&gt;" style="rounded=0;whiteSpace=wrap;html=1;fillColor=#dae8fc;gradientColor=#7ea6e0;strokeColor=#6c8ebf;" parent="1" vertex="1">
          <mxGeometry x="264" y="306" width="132" height="68" as="geometry" />
        </mxCell>
        <mxCell id="1jyaUNg8WRqcpm8-MpQX-5" value="&lt;font style=&quot;font-size: 15px;&quot;&gt;操作数栈&lt;/font&gt;" style="rounded=0;whiteSpace=wrap;html=1;fillColor=#f8cecc;gradientColor=#ea6b66;strokeColor=#b85450;" parent="1" vertex="1">
          <mxGeometry x="418" y="306" width="131" height="68" as="geometry" />
        </mxCell>
        <mxCell id="1jyaUNg8WRqcpm8-MpQX-6" value="&lt;font style=&quot;font-size: 15px;&quot;&gt;方法返回地址&lt;/font&gt;" style="rounded=0;whiteSpace=wrap;html=1;fillColor=#d5e8d4;gradientColor=#97d077;strokeColor=#82b366;" parent="1" vertex="1">
          <mxGeometry x="264" y="394" width="132" height="68" as="geometry" />
        </mxCell>
        <mxCell id="1jyaUNg8WRqcpm8-MpQX-7" value="&lt;font style=&quot;font-size: 15px;&quot;&gt;动态链接&lt;/font&gt;" style="rounded=0;whiteSpace=wrap;html=1;fillColor=#ffcd28;gradientColor=#ffa500;strokeColor=#d79b00;" parent="1" vertex="1">
          <mxGeometry x="418" y="394" width="131" height="68" as="geometry" />
        </mxCell>
        <mxCell id="1jyaUNg8WRqcpm8-MpQX-8" value="&lt;font style=&quot;font-size: 14px;&quot;&gt;附&lt;/font&gt;&lt;div&gt;&lt;font style=&quot;font-size: 14px;&quot;&gt;加&lt;/font&gt;&lt;/div&gt;&lt;div&gt;&lt;font style=&quot;font-size: 14px;&quot;&gt;信&lt;/font&gt;&lt;/div&gt;&lt;div&gt;&lt;font style=&quot;font-size: 14px;&quot;&gt;息&lt;/font&gt;&lt;/div&gt;" style="rounded=0;whiteSpace=wrap;html=1;fillColor=#f5f5f5;gradientColor=#b3b3b3;strokeColor=#666666;" parent="1" vertex="1">
          <mxGeometry x="572" y="326.75" width="57" height="105.5" as="geometry" />
        </mxCell>
        <mxCell id="1jyaUNg8WRqcpm8-MpQX-9" value="" style="endArrow=classic;html=1;rounded=0;" parent="1" edge="1">
          <mxGeometry width="50" height="50" relative="1" as="geometry">
            <mxPoint x="252" y="323" as="sourcePoint" />
            <mxPoint x="153" y="306" as="targetPoint" />
            <Array as="points" />
          </mxGeometry>
        </mxCell>
        <mxCell id="1jyaUNg8WRqcpm8-MpQX-10" value="&lt;font&gt;基本数据类型&lt;/font&gt;&lt;div&gt;&lt;font&gt;对象引用&lt;/font&gt;&lt;/div&gt;&lt;div&gt;&lt;font&gt;返回值类型&lt;/font&gt;&lt;/div&gt;" style="rounded=1;whiteSpace=wrap;html=1;" parent="1" vertex="1">
          <mxGeometry x="33" y="275" width="120" height="60" as="geometry" />
        </mxCell>
        <mxCell id="1jyaUNg8WRqcpm8-MpQX-12" value="32位内一个类型占一个Slot，64位占两个" style="text;html=1;align=center;verticalAlign=middle;whiteSpace=wrap;rounded=0;" parent="1" vertex="1">
          <mxGeometry x="33" y="344" width="132" height="30" as="geometry" />
        </mxCell>
      </root>
    </mxGraphModel>
  </diagram>
</mxfile>
